<?xml version="1.0" encoding="UTF-8"?>
<svg xmlns="http://www.w3.org/2000/svg" xmlns:xlink="http://www.w3.org/1999/xlink" width="555.79pt" height="246.897pt" viewBox="0 0 555.79 246.897">
<defs>
<g>
<g id="glyph-0-0">
<path d="M 3.375 -3.96875 L 3.375 -3.53125 C 3.921875 -3.53125 3.984375 -3.53125 3.984375 -3.171875 L 3.984375 -1.46875 C 3.984375 -0.75 3.53125 -0.3125 2.828125 -0.3125 C 2.140625 -0.3125 2.109375 -0.5 2.109375 -0.984375 L 2.109375 -4.03125 L 0.453125 -3.96875 L 0.453125 -3.53125 C 0.984375 -3.53125 1.0625 -3.53125 1.0625 -3.171875 L 1.0625 -1.109375 C 1.0625 -0.125 1.828125 0.046875 2.703125 0.046875 C 2.984375 0.046875 3.59375 0.046875 4.046875 -0.625 L 4.046875 0.046875 L 5.65625 0 L 5.65625 -0.4375 C 5.109375 -0.4375 5.046875 -0.4375 5.046875 -0.796875 L 5.046875 -4.03125 Z M 3.375 -3.96875 "/>
</g>
<g id="glyph-0-1">
<path d="M 3.5625 -3.796875 C 3.5625 -3.96875 3.5625 -4.0625 3.375 -4.0625 C 3.296875 -4.0625 3.140625 -3.984375 2.984375 -3.90625 C 2.703125 -4.03125 2.34375 -4.0625 2.046875 -4.0625 C 1.78125 -4.0625 0.34375 -4.0625 0.34375 -2.875 C 0.34375 -1.9375 1.53125 -1.734375 1.84375 -1.6875 C 2.578125 -1.5625 3.171875 -1.46875 3.171875 -0.953125 C 3.171875 -0.3125 2.328125 -0.3125 2.125 -0.3125 C 1.671875 -0.3125 1.078125 -0.421875 0.828125 -1.25 C 0.78125 -1.40625 0.765625 -1.421875 0.578125 -1.421875 C 0.34375 -1.421875 0.34375 -1.375 0.34375 -1.15625 L 0.34375 -0.203125 C 0.34375 -0.046875 0.34375 0.046875 0.53125 0.046875 C 0.59375 0.046875 0.609375 0.046875 0.8125 -0.078125 L 1.046875 -0.21875 C 1.46875 0.046875 1.953125 0.046875 2.125 0.046875 C 2.390625 0.046875 3.828125 0.046875 3.828125 -1.25 C 3.828125 -1.71875 3.5625 -2 3.40625 -2.140625 C 3 -2.46875 2.71875 -2.515625 2.015625 -2.640625 C 1.578125 -2.703125 1.015625 -2.796875 1.015625 -3.203125 C 1.015625 -3.734375 1.84375 -3.734375 2.046875 -3.734375 C 3.046875 -3.734375 3.078125 -3.203125 3.109375 -2.96875 C 3.109375 -2.84375 3.234375 -2.84375 3.328125 -2.84375 C 3.546875 -2.84375 3.5625 -2.890625 3.5625 -3.109375 Z M 3.5625 -3.796875 "/>
</g>
<g id="glyph-0-2">
<path d="M 2.9375 -1.546875 L 2.9375 -2.4375 L 0.109375 -2.4375 L 0.109375 -1.546875 Z M 2.9375 -1.546875 "/>
</g>
<g id="glyph-0-3">
<path d="M 4.265625 -1.921875 C 4.453125 -1.921875 4.5625 -1.921875 4.5625 -2.171875 C 4.5625 -2.375 4.546875 -3.171875 3.96875 -3.65625 C 3.5625 -3.984375 3.015625 -4.0625 2.578125 -4.0625 C 1.046875 -4.0625 0.296875 -3.09375 0.296875 -2.015625 C 0.296875 -0.84375 1.1875 0.046875 2.703125 0.046875 C 4.1875 0.046875 4.5625 -0.890625 4.5625 -1.046875 C 4.5625 -1.21875 4.390625 -1.21875 4.328125 -1.21875 C 4.171875 -1.21875 4.15625 -1.171875 4.09375 -1.046875 C 3.890625 -0.578125 3.34375 -0.328125 2.78125 -0.328125 C 1.5 -0.328125 1.484375 -1.484375 1.484375 -1.921875 Z M 1.484375 -2.25 C 1.5 -2.65625 1.546875 -3.703125 2.578125 -3.703125 C 3.625 -3.703125 3.671875 -2.609375 3.6875 -2.25 Z M 1.484375 -2.25 "/>
</g>
<g id="glyph-0-4">
<path d="M 4.34375 -2.671875 C 4.34375 -3.46875 3.6875 -4.0625 2.3125 -4.0625 C 1.796875 -4.0625 0.65625 -4.046875 0.65625 -3.21875 C 0.65625 -2.8125 0.953125 -2.625 1.234375 -2.625 C 1.546875 -2.625 1.828125 -2.84375 1.828125 -3.203125 C 1.828125 -3.46875 1.671875 -3.625 1.640625 -3.65625 C 1.734375 -3.671875 1.953125 -3.703125 2.28125 -3.703125 C 2.921875 -3.703125 3.296875 -3.375 3.296875 -2.671875 L 3.296875 -2.390625 C 1.796875 -2.390625 0.296875 -2 0.296875 -1 C 0.296875 -0.109375 1.421875 0.046875 2.0625 0.046875 C 2.75 0.046875 3.203125 -0.234375 3.453125 -0.65625 C 3.453125 -0.4375 3.453125 0 4.40625 0 L 4.859375 0 C 5.015625 0 5.140625 0 5.140625 -0.21875 C 5.140625 -0.4375 5 -0.4375 4.921875 -0.4375 C 4.34375 -0.453125 4.34375 -0.53125 4.34375 -0.75 Z M 3.296875 -1.25 C 3.296875 -0.3125 2.25 -0.3125 2.21875 -0.3125 C 1.765625 -0.3125 1.375 -0.59375 1.375 -1 C 1.375 -1.296875 1.546875 -2 3.296875 -2.078125 Z M 3.296875 -1.25 "/>
</g>
<g id="glyph-0-5">
<path d="M 2 -3.546875 L 3.359375 -3.546875 L 3.359375 -3.984375 L 2 -3.984375 L 2 -5.6875 L 1.546875 -5.6875 C 1.53125 -4.859375 1.109375 -3.921875 0.203125 -3.90625 L 0.203125 -3.546875 L 0.953125 -3.546875 L 0.953125 -1.109375 C 0.953125 -0.078125 1.84375 0.046875 2.390625 0.046875 C 3.09375 0.046875 3.53125 -0.453125 3.53125 -1.109375 L 3.53125 -1.578125 L 3.0625 -1.578125 L 3.0625 -1.125 C 3.0625 -0.5 2.75 -0.328125 2.515625 -0.328125 C 2 -0.328125 2 -0.875 2 -1.078125 Z M 2 -3.546875 "/>
</g>
<g id="glyph-0-6">
<path d="M 3.265625 -5.59375 C 3.265625 -5.78125 3.265625 -5.890625 3 -5.890625 C 2.890625 -5.890625 2.875 -5.890625 2.796875 -5.828125 C 2.109375 -5.3125 1.140625 -5.3125 0.96875 -5.3125 L 0.796875 -5.3125 L 0.796875 -4.875 L 0.96875 -4.875 C 1.1875 -4.875 1.671875 -4.890625 2.171875 -5.046875 L 2.171875 -0.4375 L 0.890625 -0.4375 L 0.890625 0 C 1.234375 -0.03125 2.3125 -0.03125 2.71875 -0.03125 C 3.140625 -0.03125 4.203125 -0.03125 4.5625 0 L 4.5625 -0.4375 L 3.265625 -0.4375 Z M 3.265625 -5.59375 "/>
</g>
<g id="glyph-0-7">
<path d="M 6.828125 -3.34375 C 6.890625 -3.484375 6.90625 -3.546875 7.421875 -3.546875 L 7.421875 -3.984375 C 7.171875 -3.953125 6.953125 -3.953125 6.703125 -3.953125 C 6.421875 -3.953125 6.140625 -3.96875 5.859375 -3.984375 L 5.859375 -3.546875 C 5.96875 -3.546875 6.171875 -3.546875 6.359375 -3.46875 C 6.34375 -3.390625 6.34375 -3.375 6.3125 -3.3125 L 5.359375 -1.046875 L 4.328125 -3.546875 L 4.8125 -3.546875 L 4.8125 -3.984375 C 4.375 -3.96875 4.1875 -3.953125 3.796875 -3.953125 C 3.71875 -3.953125 3.28125 -3.953125 2.890625 -3.984375 L 2.890625 -3.546875 L 3.40625 -3.546875 C 3.53125 -3.28125 3.53125 -3.265625 3.578125 -3.125 L 2.796875 -1.25 L 1.84375 -3.546875 L 2.328125 -3.546875 L 2.328125 -3.984375 C 1.71875 -3.96875 1.546875 -3.953125 1.234375 -3.953125 C 1.015625 -3.953125 0.6875 -3.953125 0.234375 -3.984375 L 0.234375 -3.546875 L 0.75 -3.546875 L 2.15625 -0.1875 C 2.25 0.046875 2.390625 0.046875 2.5 0.046875 C 2.75 0.046875 2.796875 -0.046875 2.859375 -0.203125 L 3.828125 -2.53125 L 4.8125 -0.1875 C 4.90625 0.046875 5.046875 0.046875 5.15625 0.046875 C 5.265625 0.046875 5.40625 0.046875 5.5 -0.1875 Z M 6.828125 -3.34375 "/>
</g>
<g id="glyph-0-8">
<path d="M 6.828125 -5.515625 C 6.890625 -5.625 6.921875 -5.71875 7.59375 -5.71875 L 7.75 -5.71875 L 7.75 -6.15625 C 7.265625 -6.125 7.0625 -6.125 6.703125 -6.125 C 6.203125 -6.125 5.984375 -6.140625 5.515625 -6.15625 L 5.515625 -5.71875 C 5.75 -5.71875 6.0625 -5.71875 6.296875 -5.609375 L 4.390625 -1.421875 L 2.453125 -5.71875 L 3.28125 -5.71875 L 3.28125 -6.15625 C 2.953125 -6.125 2.0625 -6.125 1.6875 -6.125 C 1.3125 -6.125 0.59375 -6.125 0.25 -6.15625 L 0.25 -5.71875 L 1.078125 -5.71875 L 3.59375 -0.15625 C 3.703125 0.078125 3.828125 0.078125 4 0.078125 C 4.171875 0.078125 4.296875 0.078125 4.40625 -0.15625 Z M 6.828125 -5.515625 "/>
</g>
<g id="glyph-0-9">
<path d="M 2.640625 -2.6875 L 4.296875 -2.6875 C 5.578125 -2.6875 6.640625 -3.34375 6.640625 -4.390625 C 6.640625 -5.375 5.734375 -6.15625 4.203125 -6.15625 L 0.375 -6.15625 L 0.375 -5.71875 L 1.34375 -5.71875 L 1.34375 -0.4375 L 0.375 -0.4375 L 0.375 0 C 0.6875 -0.03125 1.625 -0.03125 1.984375 -0.03125 C 2.359375 -0.03125 3.296875 -0.03125 3.609375 0 L 3.609375 -0.4375 L 2.640625 -0.4375 Z M 3.859375 -5.71875 C 5.234375 -5.71875 5.234375 -5.03125 5.234375 -4.390625 C 5.234375 -3.765625 5.234375 -3.078125 3.859375 -3.078125 L 2.59375 -3.078125 L 2.59375 -5.71875 Z M 3.859375 -5.71875 "/>
</g>
<g id="glyph-0-10">
<path d="M 7.0625 -6 C 7.0625 -6.15625 7.0625 -6.265625 6.890625 -6.265625 C 6.796875 -6.265625 6.78125 -6.25 6.703125 -6.171875 L 6.109375 -5.65625 C 5.59375 -6.0625 4.9375 -6.265625 4.28125 -6.265625 C 1.96875 -6.265625 0.59375 -4.890625 0.59375 -3.078125 C 0.59375 -1.296875 1.921875 0.109375 4.296875 0.109375 C 5.984375 0.109375 7.0625 -0.96875 7.0625 -2.046875 C 7.0625 -2.25 6.984375 -2.25 6.828125 -2.25 C 6.734375 -2.25 6.625 -2.25 6.609375 -2.09375 C 6.53125 -0.796875 5.34375 -0.328125 4.5 -0.328125 C 4.015625 -0.328125 3.140625 -0.4375 2.53125 -1.09375 C 2.0625 -1.625 2 -2.46875 2 -3.078125 C 2 -4.15625 2.21875 -4.6875 2.578125 -5.109375 C 3 -5.578125 3.734375 -5.828125 4.46875 -5.828125 C 5.265625 -5.828125 6.3125 -5.34375 6.53125 -3.921875 C 6.5625 -3.796875 6.65625 -3.796875 6.796875 -3.796875 C 7.046875 -3.796875 7.0625 -3.828125 7.0625 -4.0625 Z M 7.0625 -6 "/>
</g>
<g id="glyph-0-11">
<path d="M 4.390625 -6.03125 C 4.296875 -6.28125 4.15625 -6.28125 4 -6.28125 C 3.84375 -6.28125 3.703125 -6.28125 3.609375 -6.03125 L 1.34375 -0.640625 C 1.28125 -0.5 1.28125 -0.5 1.046875 -0.46875 C 0.890625 -0.453125 0.71875 -0.4375 0.578125 -0.4375 L 0.390625 -0.4375 L 0.390625 0 C 0.890625 -0.015625 1 -0.03125 1.484375 -0.03125 C 1.828125 -0.03125 2.109375 -0.03125 2.671875 0 L 2.671875 -0.4375 C 2.4375 -0.4375 2.125 -0.4375 1.875 -0.53125 L 2.375 -1.71875 L 4.859375 -1.71875 L 5.390625 -0.4375 L 4.546875 -0.4375 L 4.546875 0 C 4.859375 -0.03125 5.765625 -0.03125 6.140625 -0.03125 C 6.515625 -0.03125 7.28125 -0.03125 7.609375 0 L 7.609375 -0.4375 L 6.75 -0.4375 Z M 3.609375 -4.671875 L 4.65625 -2.15625 L 2.5625 -2.15625 Z M 3.609375 -4.671875 "/>
</g>
<g id="glyph-0-12">
<path d="M 3.53125 2.09375 C 3.53125 2.046875 3.5 2.015625 3.390625 1.90625 C 2.21875 0.8125 1.890625 -0.796875 1.890625 -2.25 C 1.890625 -3.734375 2.25 -5.296875 3.359375 -6.375 C 3.515625 -6.53125 3.53125 -6.53125 3.53125 -6.59375 C 3.53125 -6.703125 3.421875 -6.734375 3.34375 -6.734375 C 3.15625 -6.734375 2.6875 -6.28125 2.578125 -6.171875 C 1.6875 -5.34375 0.984375 -3.953125 0.984375 -2.25 C 0.984375 -0.078125 2.078125 1.234375 2.546875 1.671875 C 2.625 1.734375 3.140625 2.25 3.34375 2.25 C 3.375 2.25 3.53125 2.25 3.53125 2.09375 Z M 3.53125 2.09375 "/>
</g>
<g id="glyph-0-13">
<path d="M 6.9375 -5.71875 L 7.90625 -5.71875 L 7.90625 -6.15625 C 7.59375 -6.125 6.65625 -6.125 6.28125 -6.125 C 5.921875 -6.125 4.984375 -6.125 4.65625 -6.15625 L 4.65625 -5.71875 L 5.625 -5.71875 L 5.625 -3.421875 L 2.640625 -3.421875 L 2.640625 -5.71875 L 3.609375 -5.71875 L 3.609375 -6.15625 C 3.296875 -6.125 2.375 -6.125 2 -6.125 C 1.625 -6.125 0.6875 -6.125 0.375 -6.15625 L 0.375 -5.71875 L 1.34375 -5.71875 L 1.34375 -0.4375 L 0.375 -0.4375 L 0.375 0 C 0.6875 -0.03125 1.625 -0.03125 1.984375 -0.03125 C 2.359375 -0.03125 3.296875 -0.03125 3.609375 0 L 3.609375 -0.4375 L 2.640625 -0.4375 L 2.640625 -2.984375 L 5.625 -2.984375 L 5.625 -0.4375 L 4.65625 -0.4375 L 4.65625 0 C 4.984375 -0.03125 5.90625 -0.03125 6.28125 -0.03125 C 6.640625 -0.03125 7.59375 -0.03125 7.90625 0 L 7.90625 -0.4375 L 6.9375 -0.4375 Z M 6.9375 -5.71875 "/>
</g>
<g id="glyph-0-14">
<path d="M 1.96875 -6.21875 L 0.375 -6.15625 L 0.375 -5.71875 C 0.90625 -5.71875 0.984375 -5.71875 0.984375 -5.359375 L 0.984375 0 L 1.4375 0 L 1.859375 -0.515625 C 2.140625 -0.21875 2.578125 0.046875 3.21875 0.046875 C 4.625 0.046875 5.53125 -0.796875 5.53125 -1.984375 C 5.53125 -3.203125 4.65625 -4.03125 3.34375 -4.03125 C 2.625 -4.03125 2.140625 -3.734375 1.96875 -3.609375 Z M 2.03125 -3.109375 C 2.25 -3.390625 2.6875 -3.671875 3.234375 -3.671875 C 4.34375 -3.671875 4.34375 -2.59375 4.34375 -2.015625 C 4.34375 -1.625 4.34375 -1.171875 4.15625 -0.84375 C 3.859375 -0.34375 3.3125 -0.3125 3.125 -0.3125 C 2.578125 -0.3125 2.21875 -0.640625 2.03125 -0.9375 Z M 2.03125 -3.109375 "/>
</g>
<g id="glyph-0-15">
<path d="M 3.125 -2.25 C 3.125 -4.40625 2.03125 -5.71875 1.5625 -6.15625 C 1.5 -6.21875 0.96875 -6.734375 0.765625 -6.734375 C 0.703125 -6.734375 0.59375 -6.703125 0.59375 -6.578125 C 0.59375 -6.53125 0.625 -6.5 0.71875 -6.40625 C 1.8125 -5.34375 2.21875 -3.921875 2.21875 -2.25 C 2.21875 -0.75 1.875 0.8125 0.765625 1.890625 C 0.59375 2.046875 0.59375 2.046875 0.59375 2.09375 C 0.59375 2.21875 0.703125 2.25 0.765625 2.25 C 0.953125 2.25 1.4375 1.796875 1.53125 1.6875 C 2.4375 0.859375 3.125 -0.53125 3.125 -2.25 Z M 3.125 -2.25 "/>
</g>
<g id="glyph-0-16">
<path d="M 1.34375 -5.71875 L 1.34375 -0.4375 L 0.375 -0.4375 L 0.375 0 L 4.640625 0 C 6.171875 0 6.9375 -0.796875 6.9375 -1.671875 C 6.9375 -2.453125 6.28125 -3.078125 5.078125 -3.21875 C 6.078125 -3.390625 6.640625 -3.953125 6.640625 -4.609375 C 6.640625 -5.4375 5.84375 -6.15625 4.359375 -6.15625 L 0.375 -6.15625 L 0.375 -5.71875 Z M 2.53125 -3.375 L 2.53125 -5.71875 L 4.25 -5.71875 C 5.3125 -5.71875 5.34375 -4.796875 5.34375 -4.609375 C 5.34375 -3.953125 4.90625 -3.375 4.015625 -3.375 Z M 2.53125 -0.4375 L 2.53125 -3.015625 L 4.34375 -3.015625 C 4.5 -3.015625 4.96875 -3.015625 5.28125 -2.65625 C 5.53125 -2.34375 5.59375 -1.96875 5.59375 -1.6875 C 5.59375 -1.0625 5.234375 -0.4375 4.265625 -0.4375 Z M 2.53125 -0.4375 "/>
</g>
<g id="glyph-0-17">
<path d="M 1.34375 -5.71875 L 1.34375 -0.4375 L 0.375 -0.4375 L 0.375 0 L 4.34375 0 C 6.125 0 7.53125 -1.078125 7.53125 -3.03125 C 7.53125 -4.9375 6.21875 -6.15625 4.328125 -6.15625 L 0.375 -6.15625 L 0.375 -5.71875 Z M 2.59375 -0.4375 L 2.59375 -5.71875 L 3.953125 -5.71875 C 4.65625 -5.71875 5.328125 -5.484375 5.71875 -5 C 6.109375 -4.5 6.171875 -3.859375 6.171875 -3.03125 C 6.171875 -2.15625 6.171875 -0.4375 3.96875 -0.4375 Z M 2.59375 -0.4375 "/>
</g>
<g id="glyph-0-18">
<path d="M 6.65625 -2.46875 L 6.203125 -2.46875 C 6.015625 -1.328125 5.8125 -0.4375 4.078125 -0.4375 L 2.640625 -0.4375 L 2.640625 -2.9375 L 3.171875 -2.9375 C 4.046875 -2.9375 4.140625 -2.546875 4.140625 -1.890625 L 4.59375 -1.890625 L 4.59375 -4.4375 L 4.140625 -4.4375 C 4.140625 -3.78125 4.046875 -3.375 3.171875 -3.375 L 2.640625 -3.375 L 2.640625 -5.65625 L 4.0625 -5.65625 C 5.484375 -5.65625 5.765625 -5.046875 5.90625 -3.921875 L 6.375 -3.921875 L 6.09375 -6.09375 L 0.375 -6.09375 L 0.375 -5.65625 L 1.34375 -5.65625 L 1.34375 -0.4375 L 0.375 -0.4375 L 0.375 0 L 6.25 0 Z M 6.65625 -2.46875 "/>
</g>
<g id="glyph-0-19">
<path d="M 5.953125 -6.09375 L 0.375 -6.09375 L 0.375 -5.65625 L 1.34375 -5.65625 L 1.34375 -0.4375 L 0.375 -0.4375 L 0.375 0 C 0.6875 -0.03125 1.671875 -0.03125 2.046875 -0.03125 C 2.46875 -0.03125 3.484375 -0.03125 3.859375 0 L 3.859375 -0.4375 L 2.640625 -0.4375 L 2.640625 -2.828125 L 3.125 -2.828125 C 4 -2.828125 4.078125 -2.453125 4.078125 -1.78125 L 4.53125 -1.78125 L 4.53125 -4.328125 L 4.078125 -4.328125 C 4.078125 -3.65625 4 -3.28125 3.125 -3.28125 L 2.640625 -3.28125 L 2.640625 -5.65625 L 3.96875 -5.65625 C 5.40625 -5.65625 5.625 -4.984375 5.765625 -3.921875 L 6.21875 -3.921875 Z M 5.953125 -6.09375 "/>
</g>
<g id="glyph-1-0">
<path d="M 1.546875 -4.90625 C 1.546875 -5.140625 1.375 -5.359375 1.109375 -5.359375 C 0.875 -5.359375 0.671875 -5.171875 0.671875 -4.921875 C 0.671875 -4.640625 0.90625 -4.46875 1.109375 -4.46875 C 1.390625 -4.46875 1.546875 -4.703125 1.546875 -4.90625 Z M 0.359375 -3.421875 L 0.359375 -3.15625 C 0.875 -3.15625 0.9375 -3.109375 0.9375 -2.71875 L 0.9375 -0.625 C 0.9375 -0.265625 0.84375 -0.265625 0.328125 -0.265625 L 0.328125 0 C 0.640625 -0.03125 1.09375 -0.03125 1.21875 -0.03125 C 1.3125 -0.03125 1.796875 -0.03125 2.078125 0 L 2.078125 -0.265625 C 1.546875 -0.265625 1.515625 -0.296875 1.515625 -0.609375 L 1.515625 -3.515625 Z M 0.359375 -3.421875 "/>
</g>
<g id="glyph-1-1">
<path d="M 3.875 -2.421875 C 3.875 -3.078125 3.5625 -3.515625 2.734375 -3.515625 C 1.9375 -3.515625 1.578125 -2.9375 1.484375 -2.75 L 1.484375 -3.515625 L 0.328125 -3.421875 L 0.328125 -3.15625 C 0.875 -3.15625 0.9375 -3.109375 0.9375 -2.71875 L 0.9375 -0.625 C 0.9375 -0.265625 0.84375 -0.265625 0.328125 -0.265625 L 0.328125 0 C 0.671875 -0.03125 1.015625 -0.03125 1.234375 -0.03125 C 1.46875 -0.03125 1.796875 -0.03125 2.140625 0 L 2.140625 -0.265625 C 1.640625 -0.265625 1.53125 -0.265625 1.53125 -0.625 L 1.53125 -2.0625 C 1.53125 -2.90625 2.171875 -3.296875 2.65625 -3.296875 C 3.140625 -3.296875 3.265625 -2.953125 3.265625 -2.453125 L 3.265625 -0.625 C 3.265625 -0.265625 3.171875 -0.265625 2.65625 -0.265625 L 2.65625 0 C 3 -0.03125 3.359375 -0.03125 3.5625 -0.03125 C 3.796875 -0.03125 4.140625 -0.03125 4.484375 0 L 4.484375 -0.265625 C 3.96875 -0.265625 3.875 -0.265625 3.875 -0.625 Z M 3.875 -2.421875 "/>
</g>
<g id="glyph-1-2">
<path d="M 1.484375 -3.171875 L 2.671875 -3.171875 L 2.671875 -3.4375 L 1.484375 -3.4375 L 1.484375 -4.90625 L 1.234375 -4.90625 C 1.234375 -4.171875 0.90625 -3.421875 0.15625 -3.390625 L 0.15625 -3.171875 L 0.875 -3.171875 L 0.875 -1 C 0.875 -0.0625 1.59375 0.078125 1.953125 0.078125 C 2.5 0.078125 2.8125 -0.390625 2.8125 -1 L 2.8125 -1.4375 L 2.5625 -1.4375 L 2.5625 -1.015625 C 2.5625 -0.46875 2.3125 -0.171875 2.015625 -0.171875 C 1.484375 -0.171875 1.484375 -0.859375 1.484375 -0.984375 Z M 1.484375 -3.171875 "/>
</g>
<g id="glyph-1-3">
<path d="M 3.296875 -1.8125 C 3.46875 -1.8125 3.515625 -1.8125 3.515625 -2 C 3.515625 -2.703125 3.125 -3.546875 2 -3.546875 C 1.015625 -3.546875 0.234375 -2.734375 0.234375 -1.75 C 0.234375 -0.71875 1.09375 0.078125 2.109375 0.078125 C 3.109375 0.078125 3.515625 -0.765625 3.515625 -0.953125 C 3.515625 -0.984375 3.484375 -1.0625 3.390625 -1.0625 C 3.296875 -1.0625 3.28125 -1.015625 3.265625 -0.96875 C 2.984375 -0.1875 2.296875 -0.171875 2.15625 -0.171875 C 1.796875 -0.171875 1.421875 -0.328125 1.1875 -0.703125 C 0.953125 -1.0625 0.953125 -1.578125 0.953125 -1.8125 Z M 0.953125 -2.03125 C 1.03125 -3.140625 1.703125 -3.328125 2 -3.328125 C 2.9375 -3.328125 2.96875 -2.203125 2.96875 -2.03125 Z M 0.953125 -2.03125 "/>
</g>
<g id="glyph-1-4">
<path d="M 1.46875 -1.8125 C 1.46875 -2.421875 1.71875 -3.28125 2.484375 -3.296875 C 2.4375 -3.265625 2.34375 -3.203125 2.34375 -3.015625 C 2.34375 -2.765625 2.546875 -2.65625 2.703125 -2.65625 C 2.890625 -2.65625 3.0625 -2.78125 3.0625 -3.015625 C 3.0625 -3.296875 2.8125 -3.515625 2.453125 -3.515625 C 1.9375 -3.515625 1.578125 -3.125 1.421875 -2.671875 L 1.40625 -2.671875 L 1.40625 -3.515625 L 0.28125 -3.421875 L 0.28125 -3.15625 C 0.828125 -3.15625 0.890625 -3.109375 0.890625 -2.71875 L 0.890625 -0.625 C 0.890625 -0.265625 0.78125 -0.265625 0.28125 -0.265625 L 0.28125 0 C 0.59375 -0.03125 1.03125 -0.03125 1.21875 -0.03125 C 1.6875 -0.03125 1.703125 -0.03125 2.21875 0 L 2.21875 -0.265625 L 2.0625 -0.265625 C 1.484375 -0.265625 1.46875 -0.34375 1.46875 -0.640625 Z M 1.46875 -1.8125 "/>
</g>
<g id="glyph-1-5">
<path d="M 2.34375 -1.453125 L 2.34375 -1.96875 L 0.09375 -1.96875 L 0.09375 -1.453125 Z M 2.34375 -1.453125 "/>
</g>
<g id="glyph-1-6">
<path d="M 1.375 -0.546875 C 1.125 -0.578125 0.9375 -0.78125 0.9375 -1.078125 C 0.9375 -1.265625 0.984375 -1.34375 1.03125 -1.40625 C 1.375 -1.21875 1.6875 -1.171875 1.875 -1.171875 C 2.65625 -1.171875 3.25 -1.71875 3.25 -2.34375 C 3.25 -2.640625 3.109375 -2.90625 2.921875 -3.109375 C 3.03125 -3.203125 3.296875 -3.375 3.6875 -3.375 C 3.65625 -3.359375 3.609375 -3.3125 3.609375 -3.1875 C 3.609375 -3.046875 3.71875 -2.9375 3.859375 -2.9375 C 3.96875 -2.9375 4.109375 -3.015625 4.109375 -3.203125 C 4.109375 -3.328125 4 -3.609375 3.65625 -3.609375 C 3.515625 -3.609375 3.125 -3.5625 2.765625 -3.234375 C 2.5625 -3.375 2.25 -3.515625 1.875 -3.515625 C 1.09375 -3.515625 0.515625 -2.96875 0.515625 -2.34375 C 0.515625 -1.96875 0.71875 -1.6875 0.890625 -1.53125 C 0.703125 -1.328125 0.640625 -1.078125 0.640625 -0.890625 C 0.640625 -0.5625 0.8125 -0.3125 0.984375 -0.171875 C 0.5625 -0.0625 0.234375 0.25 0.234375 0.609375 C 0.234375 1.1875 1.0625 1.640625 2.109375 1.640625 C 3.109375 1.640625 3.984375 1.234375 3.984375 0.59375 C 3.984375 0.171875 3.734375 -0.171875 3.46875 -0.296875 C 3 -0.546875 2.609375 -0.546875 1.828125 -0.546875 Z M 1.875 -1.40625 C 1.140625 -1.40625 1.140625 -2.171875 1.140625 -2.34375 C 1.140625 -2.640625 1.171875 -2.84375 1.296875 -3 C 1.4375 -3.1875 1.65625 -3.28125 1.875 -3.28125 C 2.609375 -3.28125 2.609375 -2.515625 2.609375 -2.34375 C 2.609375 -2.046875 2.578125 -1.84375 2.453125 -1.6875 C 2.28125 -1.453125 2.03125 -1.40625 1.875 -1.40625 Z M 2.25 -0.03125 C 2.46875 -0.03125 3.515625 -0.03125 3.515625 0.609375 C 3.515625 1.03125 2.90625 1.40625 2.109375 1.40625 C 1.3125 1.40625 0.703125 1.03125 0.703125 0.609375 C 0.703125 0.4375 0.84375 -0.03125 1.484375 -0.03125 Z M 2.25 -0.03125 "/>
</g>
<g id="glyph-1-7">
<path d="M 3.984375 -1.703125 C 3.984375 -2.6875 3.15625 -3.546875 2.109375 -3.546875 C 1.0625 -3.546875 0.234375 -2.6875 0.234375 -1.703125 C 0.234375 -0.703125 1.09375 0.078125 2.109375 0.078125 C 3.140625 0.078125 3.984375 -0.703125 3.984375 -1.703125 Z M 2.109375 -0.171875 C 1.6875 -0.171875 1.34375 -0.375 1.171875 -0.65625 C 0.96875 -0.984375 0.953125 -1.375 0.953125 -1.765625 C 0.953125 -2.078125 0.953125 -2.546875 1.1875 -2.890625 C 1.40625 -3.171875 1.734375 -3.328125 2.109375 -3.328125 C 2.53125 -3.328125 2.875 -3.125 3.046875 -2.859375 C 3.265625 -2.515625 3.28125 -2.09375 3.28125 -1.765625 C 3.28125 -1.40625 3.265625 -0.96875 3.03125 -0.625 C 2.828125 -0.3125 2.46875 -0.171875 2.109375 -0.171875 Z M 2.109375 -0.171875 "/>
</g>
<g id="glyph-1-8">
<path d="M 2.09375 1.28125 C 1.578125 1.28125 1.484375 1.28125 1.484375 0.921875 L 1.484375 -0.390625 C 1.859375 0.015625 2.265625 0.078125 2.53125 0.078125 C 3.53125 0.078125 4.421875 -0.703125 4.421875 -1.71875 C 4.421875 -2.71875 3.609375 -3.515625 2.640625 -3.515625 C 2.328125 -3.515625 1.875 -3.4375 1.46875 -3.015625 L 1.46875 -3.515625 L 0.28125 -3.421875 L 0.28125 -3.15625 C 0.84375 -3.15625 0.890625 -3.109375 0.890625 -2.78125 L 0.890625 0.921875 C 0.890625 1.28125 0.78125 1.28125 0.28125 1.28125 L 0.28125 1.546875 C 0.625 1.515625 0.96875 1.515625 1.1875 1.515625 C 1.421875 1.515625 1.75 1.515625 2.09375 1.546875 Z M 1.484375 -2.65625 C 1.671875 -2.96875 2.078125 -3.265625 2.578125 -3.265625 C 3.1875 -3.265625 3.703125 -2.59375 3.703125 -1.71875 C 3.703125 -0.8125 3.125 -0.140625 2.484375 -0.140625 C 2.203125 -0.140625 1.84375 -0.265625 1.578125 -0.65625 C 1.484375 -0.796875 1.484375 -0.8125 1.484375 -0.953125 Z M 1.484375 -2.65625 "/>
</g>
<g id="glyph-1-9">
<path d="M 3.34375 -2.375 C 3.34375 -3.15625 2.59375 -3.546875 1.859375 -3.546875 C 1.203125 -3.546875 0.609375 -3.296875 0.609375 -2.765625 C 0.609375 -2.53125 0.78125 -2.390625 0.984375 -2.390625 C 1.21875 -2.390625 1.359375 -2.546875 1.359375 -2.765625 C 1.359375 -2.953125 1.25 -3.09375 1.0625 -3.125 C 1.359375 -3.328125 1.796875 -3.328125 1.84375 -3.328125 C 2.296875 -3.328125 2.734375 -3.015625 2.734375 -2.359375 L 2.734375 -2.125 C 2.28125 -2.09375 1.75 -2.078125 1.1875 -1.84375 C 0.484375 -1.53125 0.34375 -1.078125 0.34375 -0.8125 C 0.34375 -0.125 1.15625 0.078125 1.703125 0.078125 C 2.28125 0.078125 2.640625 -0.25 2.828125 -0.5625 C 2.859375 -0.265625 3.0625 0.046875 3.421875 0.046875 C 3.5 0.046875 4.171875 0.015625 4.171875 -0.71875 L 4.171875 -1.15625 L 3.921875 -1.15625 L 3.921875 -0.71875 C 3.921875 -0.390625 3.8125 -0.265625 3.640625 -0.265625 C 3.34375 -0.265625 3.34375 -0.625 3.34375 -0.71875 Z M 2.734375 -1.125 C 2.734375 -0.34375 2.09375 -0.140625 1.765625 -0.140625 C 1.359375 -0.140625 1 -0.421875 1 -0.8125 C 1 -1.328125 1.5 -1.875 2.734375 -1.90625 Z M 2.734375 -1.125 "/>
</g>
<g id="glyph-1-10">
<path d="M 2.84375 -3.34375 C 2.84375 -3.46875 2.84375 -3.546875 2.734375 -3.546875 C 2.6875 -3.546875 2.671875 -3.546875 2.546875 -3.421875 C 2.53125 -3.421875 2.453125 -3.34375 2.4375 -3.34375 C 2.421875 -3.34375 2.40625 -3.34375 2.359375 -3.375 C 2.234375 -3.46875 2 -3.546875 1.640625 -3.546875 C 0.53125 -3.546875 0.28125 -2.953125 0.28125 -2.5625 C 0.28125 -2.171875 0.578125 -1.9375 0.59375 -1.90625 C 0.921875 -1.671875 1.09375 -1.640625 1.640625 -1.546875 C 2.015625 -1.46875 2.625 -1.359375 2.625 -0.828125 C 2.625 -0.515625 2.421875 -0.140625 1.6875 -0.140625 C 0.875 -0.140625 0.640625 -0.765625 0.546875 -1.1875 C 0.515625 -1.296875 0.5 -1.328125 0.40625 -1.328125 C 0.28125 -1.328125 0.28125 -1.265625 0.28125 -1.109375 L 0.28125 -0.125 C 0.28125 0 0.28125 0.078125 0.375 0.078125 C 0.4375 0.078125 0.4375 0.078125 0.578125 -0.078125 C 0.625 -0.125 0.703125 -0.21875 0.75 -0.265625 C 1.109375 0.0625 1.484375 0.078125 1.6875 0.078125 C 2.703125 0.078125 3.046875 -0.5 3.046875 -1.03125 C 3.046875 -1.40625 2.828125 -1.96875 1.875 -2.140625 C 1.8125 -2.15625 1.359375 -2.234375 1.328125 -2.234375 C 1.078125 -2.296875 0.703125 -2.46875 0.703125 -2.78125 C 0.703125 -3.015625 0.890625 -3.359375 1.640625 -3.359375 C 2.53125 -3.359375 2.578125 -2.703125 2.59375 -2.484375 C 2.59375 -2.421875 2.65625 -2.390625 2.703125 -2.390625 C 2.84375 -2.390625 2.84375 -2.453125 2.84375 -2.59375 Z M 2.84375 -3.34375 "/>
</g>
<g id="glyph-1-11">
<path d="M 3.53125 -2.609375 C 3.71875 -3.0625 4 -3.15625 4.28125 -3.171875 L 4.28125 -3.4375 C 4.015625 -3.40625 4 -3.40625 3.671875 -3.40625 C 3.59375 -3.40625 3.21875 -3.40625 2.96875 -3.4375 L 2.96875 -3.171875 C 3.25 -3.15625 3.328125 -2.984375 3.328125 -2.84375 C 3.328125 -2.765625 3.3125 -2.71875 3.28125 -2.65625 L 2.421875 -0.640625 L 1.46875 -2.8125 C 1.421875 -2.90625 1.421875 -2.953125 1.421875 -2.96875 C 1.421875 -3.171875 1.71875 -3.171875 1.84375 -3.171875 L 1.84375 -3.4375 C 1.5 -3.40625 1.125 -3.40625 0.984375 -3.40625 C 0.8125 -3.40625 0.4375 -3.40625 0.171875 -3.4375 L 0.171875 -3.171875 C 0.65625 -3.171875 0.703125 -3.125 0.828125 -2.859375 L 2.015625 -0.09375 C 2.078125 0.03125 2.125 0.078125 2.234375 0.078125 C 2.34375 0.078125 2.40625 0.015625 2.4375 -0.078125 Z M 3.53125 -2.609375 "/>
</g>
<g id="glyph-1-12">
<path d="M 2.65625 -3.421875 L 2.65625 -3.15625 C 3.203125 -3.15625 3.265625 -3.109375 3.265625 -2.71875 L 3.265625 -1.328125 C 3.265625 -0.640625 2.859375 -0.140625 2.25 -0.140625 C 1.5625 -0.140625 1.53125 -0.484375 1.53125 -0.890625 L 1.53125 -3.515625 L 0.328125 -3.421875 L 0.328125 -3.15625 C 0.9375 -3.15625 0.9375 -3.140625 0.9375 -2.4375 L 0.9375 -1.234375 C 0.9375 -0.65625 0.9375 0.078125 2.203125 0.078125 C 2.953125 0.078125 3.25 -0.5 3.28125 -0.5625 L 3.296875 -0.5625 L 3.296875 0.078125 L 4.484375 0 L 4.484375 -0.265625 C 3.9375 -0.265625 3.875 -0.3125 3.875 -0.703125 L 3.875 -3.515625 Z M 2.65625 -3.421875 "/>
</g>
<g id="glyph-1-13">
<path d="M 2.65625 1.984375 C 2.71875 1.984375 2.8125 1.984375 2.8125 1.890625 C 2.8125 1.859375 2.8125 1.859375 2.703125 1.75 C 1.609375 0.71875 1.34375 -0.75 1.34375 -1.984375 C 1.34375 -4.28125 2.28125 -5.359375 2.6875 -5.734375 C 2.8125 -5.828125 2.8125 -5.84375 2.8125 -5.875 C 2.8125 -5.921875 2.78125 -5.96875 2.703125 -5.96875 C 2.578125 -5.96875 2.171875 -5.5625 2.109375 -5.5 C 1.046875 -4.375 0.828125 -2.953125 0.828125 -1.984375 C 0.828125 -0.203125 1.5625 1.234375 2.65625 1.984375 Z M 2.65625 1.984375 "/>
</g>
<g id="glyph-1-14">
<path d="M 2.9375 -3.15625 C 2.703125 -3.09375 2.671875 -2.90625 2.671875 -2.8125 C 2.671875 -2.59375 2.828125 -2.4375 3.046875 -2.4375 C 3.265625 -2.4375 3.421875 -2.578125 3.421875 -2.828125 C 3.421875 -3.3125 2.890625 -3.546875 2.140625 -3.546875 C 1.03125 -3.546875 0.28125 -2.671875 0.28125 -1.71875 C 0.28125 -0.703125 1.109375 0.078125 2.109375 0.078125 C 3.234375 0.078125 3.515625 -0.859375 3.515625 -0.953125 C 3.515625 -1.046875 3.40625 -1.046875 3.390625 -1.046875 C 3.328125 -1.046875 3.296875 -1.046875 3.265625 -0.96875 C 3.21875 -0.796875 2.984375 -0.171875 2.1875 -0.171875 C 1.703125 -0.171875 0.984375 -0.546875 0.984375 -1.734375 C 0.984375 -2.875 1.578125 -3.3125 2.15625 -3.3125 C 2.234375 -3.3125 2.65625 -3.3125 2.9375 -3.15625 Z M 2.9375 -3.15625 "/>
</g>
<g id="glyph-1-15">
<path d="M 2.46875 -1.984375 C 2.46875 -2.75 2.328125 -3.65625 1.84375 -4.59375 C 1.453125 -5.328125 0.71875 -5.96875 0.578125 -5.96875 C 0.5 -5.96875 0.484375 -5.921875 0.484375 -5.875 C 0.484375 -5.84375 0.484375 -5.828125 0.578125 -5.734375 C 1.6875 -4.671875 1.9375 -3.21875 1.9375 -1.984375 C 1.9375 0.296875 1 1.375 0.59375 1.75 C 0.484375 1.84375 0.484375 1.859375 0.484375 1.890625 C 0.484375 1.9375 0.5 1.984375 0.578125 1.984375 C 0.703125 1.984375 1.109375 1.578125 1.171875 1.515625 C 2.234375 0.390625 2.46875 -1.03125 2.46875 -1.984375 Z M 2.46875 -1.984375 "/>
</g>
<g id="glyph-1-16">
<path d="M 5.515625 -2.078125 L 5.265625 -2.078125 C 5.0625 -0.875 4.890625 -0.265625 3.453125 -0.265625 L 2.265625 -0.265625 C 1.90625 -0.265625 1.890625 -0.3125 1.890625 -0.59375 L 1.890625 -2.6875 L 2.65625 -2.6875 C 3.453125 -2.6875 3.5625 -2.453125 3.5625 -1.75 L 3.8125 -1.75 L 3.8125 -3.875 L 3.5625 -3.875 C 3.5625 -3.1875 3.453125 -2.953125 2.65625 -2.953125 L 1.890625 -2.953125 L 1.890625 -4.828125 C 1.890625 -5.09375 1.90625 -5.15625 2.265625 -5.15625 L 3.40625 -5.15625 C 4.71875 -5.15625 4.890625 -4.671875 5.03125 -3.609375 L 5.28125 -3.609375 L 5.046875 -5.421875 L 0.34375 -5.421875 L 0.34375 -5.15625 L 0.53125 -5.15625 C 1.140625 -5.15625 1.15625 -5.0625 1.15625 -4.765625 L 1.15625 -0.640625 C 1.15625 -0.34375 1.140625 -0.265625 0.53125 -0.265625 L 0.34375 -0.265625 L 0.34375 0 L 5.15625 0 Z M 5.515625 -2.078125 "/>
</g>
<g id="glyph-1-17">
<path d="M 2.453125 -1.859375 C 2.671875 -2.140625 2.90625 -2.421875 3.140625 -2.671875 C 3.40625 -2.953125 3.6875 -3.15625 4.1875 -3.171875 L 4.1875 -3.4375 C 3.875 -3.40625 3.859375 -3.40625 3.5 -3.40625 C 3.46875 -3.40625 3 -3.40625 2.75 -3.4375 L 2.75 -3.171875 C 2.90625 -3.15625 2.9375 -3.0625 2.9375 -2.953125 C 2.9375 -2.859375 2.890625 -2.75 2.796875 -2.640625 L 2.296875 -2.0625 L 1.671875 -2.8125 C 1.5625 -2.921875 1.5625 -2.96875 1.5625 -2.984375 C 1.5625 -3.046875 1.625 -3.15625 1.8125 -3.171875 L 1.8125 -3.4375 C 1.5 -3.40625 1.046875 -3.40625 0.96875 -3.40625 C 0.828125 -3.40625 0.421875 -3.40625 0.171875 -3.4375 L 0.171875 -3.171875 C 0.71875 -3.171875 0.71875 -3.15625 1.140625 -2.671875 L 1.953125 -1.6875 L 1.234375 -0.828125 C 1.03125 -0.609375 0.734375 -0.28125 0.140625 -0.265625 L 0.140625 0 C 0.4375 -0.03125 0.484375 -0.03125 0.828125 -0.03125 C 0.84375 -0.03125 1.328125 -0.03125 1.578125 0 L 1.578125 -0.265625 C 1.46875 -0.28125 1.390625 -0.328125 1.390625 -0.484375 C 1.390625 -0.625 1.484375 -0.734375 1.5 -0.765625 C 1.703125 -1.015625 1.921875 -1.25 2.125 -1.484375 L 2.78125 -0.703125 C 2.9375 -0.515625 2.9375 -0.5 2.9375 -0.453125 C 2.9375 -0.375 2.890625 -0.265625 2.6875 -0.265625 L 2.6875 0 C 3.03125 -0.03125 3.390625 -0.03125 3.546875 -0.03125 C 3.6875 -0.03125 4.09375 -0.03125 4.328125 0 L 4.328125 -0.265625 C 3.84375 -0.265625 3.765625 -0.296875 3.546875 -0.546875 Z M 2.453125 -1.859375 "/>
</g>
<g id="glyph-1-18">
<path d="M 2.03125 -5.265625 C 1.953125 -5.421875 1.953125 -5.4375 1.734375 -5.4375 L 0.390625 -5.4375 L 0.390625 -5.171875 L 0.5625 -5.171875 C 1.171875 -5.171875 1.1875 -5.09375 1.1875 -4.796875 L 1.1875 -0.859375 C 1.1875 -0.640625 1.1875 -0.265625 0.390625 -0.265625 L 0.390625 0 C 0.75 -0.03125 1.125 -0.03125 1.328125 -0.03125 C 1.53125 -0.03125 1.90625 -0.03125 2.265625 0 L 2.265625 -0.265625 C 1.46875 -0.265625 1.46875 -0.640625 1.46875 -0.859375 L 1.46875 -5.09375 L 3.484375 -0.1875 C 3.53125 -0.09375 3.5625 0 3.671875 0 C 3.78125 0 3.8125 -0.09375 3.859375 -0.1875 L 5.890625 -5.15625 L 5.890625 -0.640625 C 5.890625 -0.34375 5.875 -0.265625 5.265625 -0.265625 L 5.09375 -0.265625 L 5.09375 0 C 5.71875 -0.03125 5.734375 -0.03125 6.21875 -0.03125 C 6.703125 -0.03125 6.71875 -0.03125 7.359375 0 L 7.359375 -0.265625 L 7.1875 -0.265625 C 6.5625 -0.265625 6.546875 -0.34375 6.546875 -0.640625 L 6.546875 -4.796875 C 6.546875 -5.09375 6.5625 -5.171875 7.1875 -5.171875 L 7.359375 -5.171875 L 7.359375 -5.4375 L 6.015625 -5.4375 C 5.796875 -5.4375 5.78125 -5.421875 5.71875 -5.28125 L 3.875 -0.75 Z M 2.03125 -5.265625 "/>
</g>
<g id="glyph-1-19">
<path d="M 3.875 -2.421875 C 3.875 -3.078125 3.5625 -3.515625 2.734375 -3.515625 C 2.03125 -3.515625 1.671875 -3.0625 1.515625 -2.8125 L 1.515625 -5.53125 L 0.328125 -5.4375 L 0.328125 -5.171875 C 0.875 -5.171875 0.9375 -5.125 0.9375 -4.734375 L 0.9375 -0.625 C 0.9375 -0.265625 0.84375 -0.265625 0.328125 -0.265625 L 0.328125 0 C 0.671875 -0.03125 1.015625 -0.03125 1.234375 -0.03125 C 1.46875 -0.03125 1.796875 -0.03125 2.140625 0 L 2.140625 -0.265625 C 1.640625 -0.265625 1.53125 -0.265625 1.53125 -0.625 L 1.53125 -2.0625 C 1.53125 -2.90625 2.171875 -3.296875 2.65625 -3.296875 C 3.140625 -3.296875 3.265625 -2.953125 3.265625 -2.453125 L 3.265625 -0.625 C 3.265625 -0.265625 3.171875 -0.265625 2.65625 -0.265625 L 2.65625 0 C 3 -0.03125 3.359375 -0.03125 3.5625 -0.03125 C 3.796875 -0.03125 4.140625 -0.03125 4.484375 0 L 4.484375 -0.265625 C 3.96875 -0.265625 3.875 -0.265625 3.875 -0.625 Z M 3.875 -2.421875 "/>
</g>
<g id="glyph-2-0">
<path d="M 3.28125 -1.734375 L 3.296875 -1.734375 C 3.375 -1.640625 3.46875 -1.546875 3.5625 -1.453125 L 4.6875 -0.328125 C 4.828125 -0.203125 5 0.046875 5.15625 0.046875 C 5.265625 0.046875 5.328125 -0.046875 5.328125 -0.140625 C 5.328125 -0.234375 5.25 -0.296875 5.203125 -0.34375 L 3.671875 -1.875 C 3.640625 -1.90625 3.5625 -1.953125 3.5625 -2 C 3.5625 -2.046875 3.640625 -2.09375 3.671875 -2.125 L 5.203125 -3.65625 C 5.25 -3.703125 5.328125 -3.765625 5.328125 -3.859375 C 5.328125 -3.953125 5.265625 -4.046875 5.15625 -4.046875 C 5 -4.046875 4.828125 -3.796875 4.6875 -3.671875 L 3.5625 -2.546875 C 3.46875 -2.453125 3.375 -2.359375 3.296875 -2.265625 L 1.609375 -3.953125 C 1.546875 -4 1.5 -4.046875 1.421875 -4.046875 C 1.328125 -4.046875 1.25 -3.953125 1.25 -3.859375 C 1.25 -3.765625 1.328125 -3.703125 1.375 -3.65625 L 2.90625 -2.125 C 2.9375 -2.09375 3 -2.046875 3 -2 C 3 -1.953125 2.9375 -1.90625 2.90625 -1.875 L 1.375 -0.34375 C 1.328125 -0.296875 1.25 -0.234375 1.25 -0.140625 C 1.25 -0.0625 1.3125 0.03125 1.40625 0.046875 L 1.421875 0.046875 C 1.5625 0.046875 1.75 -0.1875 1.875 -0.3125 L 3 -1.4375 C 3.09375 -1.53125 3.203125 -1.640625 3.28125 -1.734375 Z M 3.28125 -1.734375 "/>
</g>
</g>
</defs>
<path fill="none" stroke-width="0.3985" stroke-linecap="butt" stroke-linejoin="miter" stroke="rgb(0%, 0%, 0%)" stroke-opacity="1" stroke-dasharray="2.98883 2.98883" stroke-miterlimit="10" d="M -29.499188 82.205906 L -197.276531 82.205906 C -199.479656 82.205906 -201.260906 80.42075 -201.260906 78.221531 L -201.260906 -55.544094 C -201.260906 -57.743313 -199.479656 -59.528469 -197.276531 -59.528469 L -29.499188 -59.528469 C -27.296063 -59.528469 -25.510906 -57.743313 -25.510906 -55.544094 L -25.510906 78.221531 C -25.510906 80.42075 -27.296063 82.205906 -29.499188 82.205906 Z M -29.499188 82.205906 " transform="matrix(1, 0, 0, -1, 215.632, 96.577)"/>
<g fill="rgb(0%, 0%, 0%)" fill-opacity="1">
<use xlink:href="#glyph-0-0" x="20.727" y="25.087"/>
<use xlink:href="#glyph-0-1" x="26.621511" y="25.087"/>
<use xlink:href="#glyph-0-2" x="30.807027" y="25.087"/>
<use xlink:href="#glyph-0-3" x="34.343375" y="25.087"/>
<use xlink:href="#glyph-0-4" x="39.21213" y="25.087"/>
<use xlink:href="#glyph-0-1" x="44.369604" y="25.087"/>
<use xlink:href="#glyph-0-5" x="48.555119" y="25.087"/>
<use xlink:href="#glyph-0-2" x="52.681456" y="25.087"/>
<use xlink:href="#glyph-0-6" x="56.217804" y="25.087"/>
</g>
<path fill="none" stroke-width="0.3985" stroke-linecap="butt" stroke-linejoin="miter" stroke="rgb(0%, 0%, 0%)" stroke-opacity="1" stroke-dasharray="2.98883 2.98883" stroke-miterlimit="10" d="M 197.278156 82.205906 L 29.496906 82.205906 C 27.297687 82.205906 25.512531 80.42075 25.512531 78.221531 L 25.512531 -55.544094 C 25.512531 -57.743313 27.297687 -59.528469 29.496906 -59.528469 L 197.278156 -59.528469 C 199.477375 -59.528469 201.262531 -57.743313 201.262531 -55.544094 L 201.262531 78.221531 C 201.262531 80.42075 199.477375 82.205906 197.278156 82.205906 Z M 197.278156 82.205906 " transform="matrix(1, 0, 0, -1, 215.632, 96.577)"/>
<g fill="rgb(0%, 0%, 0%)" fill-opacity="1">
<use xlink:href="#glyph-0-3" x="247.498" y="25.087"/>
<use xlink:href="#glyph-0-0" x="252.366755" y="25.087"/>
<use xlink:href="#glyph-0-2" x="258.261267" y="25.087"/>
<use xlink:href="#glyph-0-7" x="261.797615" y="25.087"/>
</g>
<g fill="rgb(0%, 0%, 0%)" fill-opacity="1">
<use xlink:href="#glyph-0-3" x="269.164409" y="25.087"/>
<use xlink:href="#glyph-0-1" x="274.033164" y="25.087"/>
<use xlink:href="#glyph-0-5" x="278.21868" y="25.087"/>
<use xlink:href="#glyph-0-2" x="282.345017" y="25.087"/>
<use xlink:href="#glyph-0-6" x="285.881365" y="25.087"/>
</g>
<path fill-rule="nonzero" fill="rgb(100%, 89.99939%, 79.998779%)" fill-opacity="1" stroke-width="0.3985" stroke-linecap="butt" stroke-linejoin="miter" stroke="rgb(0%, 0%, 0%)" stroke-opacity="1" stroke-miterlimit="10" d="M -80.889813 57.401219 L -145.885906 57.401219 C -148.085125 57.401219 -149.870281 55.619969 -149.870281 53.416844 L -149.870281 37.291844 C -149.870281 35.092625 -148.085125 33.307469 -145.885906 33.307469 L -80.889813 33.307469 C -78.690594 33.307469 -76.905438 35.092625 -76.905438 37.291844 L -76.905438 53.416844 C -76.905438 55.619969 -78.690594 57.401219 -80.889813 57.401219 Z M -80.889813 57.401219 " transform="matrix(1, 0, 0, -1, 215.632, 96.577)"/>
<g fill="rgb(0%, 0%, 0%)" fill-opacity="1">
<use xlink:href="#glyph-0-8" x="69.085" y="53.464"/>
<use xlink:href="#glyph-0-9" x="77.091099" y="53.464"/>
<use xlink:href="#glyph-0-10" x="84.33595" y="53.464"/>
<use xlink:href="#glyph-0-2" x="91.998635" y="53.464"/>
<use xlink:href="#glyph-0-11" x="95.534983" y="53.464"/>
</g>
<g fill="rgb(0%, 0%, 0%)" fill-opacity="1">
<use xlink:href="#glyph-0-12" x="107.073844" y="53.464"/>
<use xlink:href="#glyph-0-13" x="111.200181" y="53.464"/>
<use xlink:href="#glyph-0-0" x="119.488721" y="53.464"/>
<use xlink:href="#glyph-0-14" x="125.383232" y="53.464"/>
<use xlink:href="#glyph-0-15" x="131.277744" y="53.464"/>
</g>
<path fill-rule="nonzero" fill="rgb(89.99939%, 89.99939%, 100%)" fill-opacity="1" stroke-width="0.3985" stroke-linecap="butt" stroke-linejoin="miter" stroke="rgb(0%, 0%, 0%)" stroke-opacity="1" stroke-miterlimit="10" d="M -148.553875 -2.126125 L -191.608563 -2.126125 C -193.807781 -2.126125 -195.592938 -3.911281 -195.592938 -6.1105 L -195.592938 -22.2355 C -195.592938 -24.438625 -193.807781 -26.219875 -191.608563 -26.219875 L -148.553875 -26.219875 C -146.354656 -26.219875 -144.5695 -24.438625 -144.5695 -22.2355 L -144.5695 -6.1105 C -144.5695 -3.911281 -146.354656 -2.126125 -148.553875 -2.126125 Z M -148.553875 -2.126125 " transform="matrix(1, 0, 0, -1, 215.632, 96.577)"/>
<g fill="rgb(0%, 0%, 0%)" fill-opacity="1">
<use xlink:href="#glyph-0-8" x="28.558" y="113.826"/>
<use xlink:href="#glyph-0-9" x="36.564099" y="113.826"/>
<use xlink:href="#glyph-0-10" x="43.80895" y="113.826"/>
<use xlink:href="#glyph-0-2" x="51.471635" y="113.826"/>
<use xlink:href="#glyph-0-16" x="55.007983" y="113.826"/>
</g>
<path fill-rule="nonzero" fill="rgb(89.99939%, 89.99939%, 100%)" fill-opacity="1" stroke-width="0.3985" stroke-linecap="butt" stroke-linejoin="miter" stroke="rgb(0%, 0%, 0%)" stroke-opacity="1" stroke-miterlimit="10" d="M -35.167156 -2.126125 L -78.221844 -2.126125 C -80.421063 -2.126125 -82.206219 -3.911281 -82.206219 -6.1105 L -82.206219 -22.2355 C -82.206219 -24.438625 -80.421063 -26.219875 -78.221844 -26.219875 L -35.167156 -26.219875 C -32.964031 -26.219875 -31.182781 -24.438625 -31.182781 -22.2355 L -31.182781 -6.1105 C -31.182781 -3.911281 -32.964031 -2.126125 -35.167156 -2.126125 Z M -35.167156 -2.126125 " transform="matrix(1, 0, 0, -1, 215.632, 96.577)"/>
<g fill="rgb(0%, 0%, 0%)" fill-opacity="1">
<use xlink:href="#glyph-0-8" x="141.883" y="113.826"/>
<use xlink:href="#glyph-0-9" x="149.889099" y="113.826"/>
<use xlink:href="#glyph-0-10" x="157.13395" y="113.826"/>
<use xlink:href="#glyph-0-2" x="164.796635" y="113.826"/>
<use xlink:href="#glyph-0-10" x="168.332983" y="113.826"/>
</g>
<path fill-rule="nonzero" fill="rgb(100%, 89.99939%, 79.998779%)" fill-opacity="1" stroke-width="0.3985" stroke-linecap="butt" stroke-linejoin="miter" stroke="rgb(0%, 0%, 0%)" stroke-opacity="1" stroke-miterlimit="10" d="M 145.946125 57.401219 L 80.828937 57.401219 C 78.625812 57.401219 76.844562 55.619969 76.844562 53.416844 L 76.844562 37.291844 C 76.844562 35.092625 78.625812 33.307469 80.828937 33.307469 L 145.946125 33.307469 C 148.145344 33.307469 149.9305 35.092625 149.9305 37.291844 L 149.9305 53.416844 C 149.9305 55.619969 148.145344 57.401219 145.946125 57.401219 Z M 145.946125 57.401219 " transform="matrix(1, 0, 0, -1, 215.632, 96.577)"/>
<g fill="rgb(0%, 0%, 0%)" fill-opacity="1">
<use xlink:href="#glyph-0-8" x="295.795" y="53.464"/>
<use xlink:href="#glyph-0-9" x="303.801099" y="53.464"/>
<use xlink:href="#glyph-0-10" x="311.04595" y="53.464"/>
<use xlink:href="#glyph-0-2" x="318.708635" y="53.464"/>
<use xlink:href="#glyph-0-17" x="322.244983" y="53.464"/>
</g>
<g fill="rgb(0%, 0%, 0%)" fill-opacity="1">
<use xlink:href="#glyph-0-12" x="333.91565" y="53.464"/>
<use xlink:href="#glyph-0-13" x="338.041987" y="53.464"/>
</g>
<g fill="rgb(0%, 0%, 0%)" fill-opacity="1">
<use xlink:href="#glyph-0-0" x="346.321561" y="53.464"/>
<use xlink:href="#glyph-0-14" x="352.216072" y="53.464"/>
<use xlink:href="#glyph-0-15" x="358.110583" y="53.464"/>
</g>
<path fill-rule="nonzero" fill="rgb(89.99939%, 89.99939%, 100%)" fill-opacity="1" stroke-width="0.3985" stroke-linecap="butt" stroke-linejoin="miter" stroke="rgb(0%, 0%, 0%)" stroke-opacity="1" stroke-miterlimit="10" d="M 78.219562 -2.126125 L 35.164875 -2.126125 C 32.965656 -2.126125 31.1805 -3.911281 31.1805 -6.1105 L 31.1805 -22.2355 C 31.1805 -24.438625 32.965656 -26.219875 35.164875 -26.219875 L 78.219562 -26.219875 C 80.422687 -26.219875 82.203937 -24.438625 82.203937 -22.2355 L 82.203937 -6.1105 C 82.203937 -3.911281 80.422687 -2.126125 78.219562 -2.126125 Z M 78.219562 -2.126125 " transform="matrix(1, 0, 0, -1, 215.632, 96.577)"/>
<g fill="rgb(0%, 0%, 0%)" fill-opacity="1">
<use xlink:href="#glyph-0-8" x="255.618" y="113.826"/>
<use xlink:href="#glyph-0-9" x="263.624099" y="113.826"/>
<use xlink:href="#glyph-0-10" x="270.86895" y="113.826"/>
<use xlink:href="#glyph-0-2" x="278.531635" y="113.826"/>
<use xlink:href="#glyph-0-18" x="282.067983" y="113.826"/>
</g>
<path fill-rule="nonzero" fill="rgb(89.99939%, 89.99939%, 100%)" fill-opacity="1" stroke-width="0.3985" stroke-linecap="butt" stroke-linejoin="miter" stroke="rgb(0%, 0%, 0%)" stroke-opacity="1" stroke-miterlimit="10" d="M 191.606281 -2.126125 L 148.5555 -2.126125 C 146.352375 -2.126125 144.567219 -3.911281 144.567219 -6.1105 L 144.567219 -22.2355 C 144.567219 -24.438625 146.352375 -26.219875 148.5555 -26.219875 L 191.606281 -26.219875 C 193.809406 -26.219875 195.594562 -24.438625 195.594562 -22.2355 L 195.594562 -6.1105 C 195.594562 -3.911281 193.809406 -2.126125 191.606281 -2.126125 Z M 191.606281 -2.126125 " transform="matrix(1, 0, 0, -1, 215.632, 96.577)"/>
<g fill="rgb(0%, 0%, 0%)" fill-opacity="1">
<use xlink:href="#glyph-0-8" x="369.152" y="113.826"/>
<use xlink:href="#glyph-0-9" x="377.158099" y="113.826"/>
<use xlink:href="#glyph-0-10" x="384.40295" y="113.826"/>
<use xlink:href="#glyph-0-2" x="392.065635" y="113.826"/>
<use xlink:href="#glyph-0-19" x="395.601983" y="113.826"/>
</g>
<path fill="none" stroke-width="0.79701" stroke-linecap="butt" stroke-linejoin="miter" stroke="rgb(29.998779%, 29.998779%, 100%)" stroke-opacity="1" stroke-miterlimit="10" d="M -127.268719 30.776219 L -156.202313 0.405125 " transform="matrix(1, 0, 0, -1, 215.632, 96.577)"/>
<path fill-rule="nonzero" fill="rgb(29.998779%, 29.998779%, 100%)" fill-opacity="1" stroke-width="0.79701" stroke-linecap="butt" stroke-linejoin="miter" stroke="rgb(29.998779%, 29.998779%, 100%)" stroke-opacity="1" stroke-miterlimit="10" d="M 4.126799 0.000379154 L 1.287507 1.077557 L 2.236874 0.00186292 L 1.285137 -1.077604 Z M 4.126799 0.000379154 " transform="matrix(0.68977, -0.72395, -0.72395, -0.68977, 86.95842, 67.27692)"/>
<path fill-rule="nonzero" fill="rgb(29.998779%, 29.998779%, 100%)" fill-opacity="1" stroke-width="0.79701" stroke-linecap="butt" stroke-linejoin="miter" stroke="rgb(29.998779%, 29.998779%, 100%)" stroke-opacity="1" stroke-miterlimit="10" d="M 4.12687 0.000762941 L 1.287578 1.077941 L 2.236945 0.0022467 L 1.285208 -1.07722 Z M 4.12687 0.000762941 " transform="matrix(-0.68977, 0.72395, 0.72395, 0.68977, 60.83432, 94.69542)"/>
<path fill="none" stroke-width="0.79701" stroke-linecap="butt" stroke-linejoin="miter" stroke="rgb(29.998779%, 29.998779%, 100%)" stroke-opacity="1" stroke-miterlimit="10" d="M -99.507 30.776219 L -70.5695 0.405125 " transform="matrix(1, 0, 0, -1, 215.632, 96.577)"/>
<path fill-rule="nonzero" fill="rgb(29.998779%, 29.998779%, 100%)" fill-opacity="1" stroke-width="0.79701" stroke-linecap="butt" stroke-linejoin="miter" stroke="rgb(29.998779%, 29.998779%, 100%)" stroke-opacity="1" stroke-miterlimit="10" d="M 4.127667 0.000532221 L 1.286005 1.078515 L 2.237742 -0.000951541 L 1.288376 -1.076646 Z M 4.127667 0.000532221 " transform="matrix(-0.68977, -0.72395, -0.72395, 0.68977, 117.53112, 67.27692)"/>
<path fill-rule="nonzero" fill="rgb(29.998779%, 29.998779%, 100%)" fill-opacity="1" stroke-width="0.79701" stroke-linecap="butt" stroke-linejoin="miter" stroke="rgb(29.998779%, 29.998779%, 100%)" stroke-opacity="1" stroke-miterlimit="10" d="M 4.126008 -0.00166708 L 1.287041 1.079144 L 2.238779 -0.000322588 L 1.286717 -1.078845 Z M 4.126008 -0.00166708 " transform="matrix(0.68977, 0.72395, 0.72395, -0.68977, 143.65521, 94.69542)"/>
<path fill="none" stroke-width="0.79701" stroke-linecap="butt" stroke-linejoin="miter" stroke="rgb(29.998779%, 29.998779%, 100%)" stroke-opacity="1" stroke-miterlimit="10" d="M 99.504719 30.776219 L 70.571125 0.405125 " transform="matrix(1, 0, 0, -1, 215.632, 96.577)"/>
<path fill-rule="nonzero" fill="rgb(29.998779%, 29.998779%, 100%)" fill-opacity="1" stroke-width="0.79701" stroke-linecap="butt" stroke-linejoin="miter" stroke="rgb(29.998779%, 29.998779%, 100%)" stroke-opacity="1" stroke-miterlimit="10" d="M 4.126093 0.00111948 L 1.286802 1.078298 L 2.238863 -0.000225012 L 1.287126 -1.079692 Z M 4.126093 0.00111948 " transform="matrix(0.68977, -0.72395, -0.72395, -0.68977, 313.73288, 67.27692)"/>
<path fill-rule="nonzero" fill="rgb(29.998779%, 29.998779%, 100%)" fill-opacity="1" stroke-width="0.79701" stroke-linecap="butt" stroke-linejoin="miter" stroke="rgb(29.998779%, 29.998779%, 100%)" stroke-opacity="1" stroke-miterlimit="10" d="M 4.127582 0.0000153778 L 1.288291 1.077193 L 2.237658 0.00149914 L 1.28592 -1.077967 Z M 4.127582 0.0000153778 " transform="matrix(-0.68977, 0.72395, 0.72395, 0.68977, 287.60879, 94.69542)"/>
<path fill="none" stroke-width="0.79701" stroke-linecap="butt" stroke-linejoin="miter" stroke="rgb(29.998779%, 29.998779%, 100%)" stroke-opacity="1" stroke-miterlimit="10" d="M 127.266437 30.776219 L 156.203937 0.405125 " transform="matrix(1, 0, 0, -1, 215.632, 96.577)"/>
<path fill-rule="nonzero" fill="rgb(29.998779%, 29.998779%, 100%)" fill-opacity="1" stroke-width="0.79701" stroke-linecap="butt" stroke-linejoin="miter" stroke="rgb(29.998779%, 29.998779%, 100%)" stroke-opacity="1" stroke-miterlimit="10" d="M 4.125678 -0.00155571 L 1.286711 1.079255 L 2.238448 -0.000211218 L 1.286386 -1.078734 Z M 4.125678 -0.00155571 " transform="matrix(-0.68977, -0.72395, -0.72395, 0.68977, 344.30558, 67.27692)"/>
<path fill-rule="nonzero" fill="rgb(29.998779%, 29.998779%, 100%)" fill-opacity="1" stroke-width="0.79701" stroke-linecap="butt" stroke-linejoin="miter" stroke="rgb(29.998779%, 29.998779%, 100%)" stroke-opacity="1" stroke-miterlimit="10" d="M 4.125296 -0.00241464 L 1.286329 1.078396 L 2.238066 -0.00107015 L 1.288699 -1.076764 Z M 4.125296 -0.00241464 " transform="matrix(0.68977, 0.72395, 0.72395, -0.68977, 370.42968, 94.69542)"/>
<path fill="none" stroke-width="0.79701" stroke-linecap="butt" stroke-linejoin="miter" stroke="rgb(29.998779%, 29.998779%, 100%)" stroke-opacity="1" stroke-miterlimit="10" d="M -73.483563 45.354344 L 73.422687 45.354344 " transform="matrix(1, 0, 0, -1, 215.632, 96.577)"/>
<path fill-rule="nonzero" fill="rgb(29.998779%, 29.998779%, 100%)" fill-opacity="1" stroke-width="0.79701" stroke-linecap="butt" stroke-linejoin="miter" stroke="rgb(29.998779%, 29.998779%, 100%)" stroke-opacity="1" stroke-miterlimit="10" d="M 4.1242 0.00071625 L 1.288263 1.078841 L 2.237481 0.00071625 L 1.288263 -1.077409 Z M 4.1242 0.00071625 " transform="matrix(-1, 0, 0, 1, 144.1867, 51.22194)"/>
<path fill-rule="nonzero" fill="rgb(29.998779%, 29.998779%, 100%)" fill-opacity="1" stroke-width="0.79701" stroke-linecap="butt" stroke-linejoin="miter" stroke="rgb(29.998779%, 29.998779%, 100%)" stroke-opacity="1" stroke-miterlimit="10" d="M 4.124895 -0.00071625 L 1.285051 1.077409 L 2.238176 -0.00071625 L 1.285051 -1.078841 Z M 4.124895 -0.00071625 " transform="matrix(1, 0, 0, -1, 287.01573, 51.22194)"/>
<path fill-rule="nonzero" fill="rgb(100%, 100%, 100%)" fill-opacity="1" d="M 177.871094 50.824219 L 253.332031 50.824219 L 253.332031 40.941406 L 177.871094 40.941406 Z M 177.871094 50.824219 "/>
<g fill="rgb(29.998779%, 29.998779%, 100%)" fill-opacity="1">
<use xlink:href="#glyph-1-0" x="179.365" y="47.78"/>
<use xlink:href="#glyph-1-1" x="181.716977" y="47.78"/>
</g>
<g fill="rgb(29.998779%, 29.998779%, 100%)" fill-opacity="1">
<use xlink:href="#glyph-1-2" x="186.190594" y="47.78"/>
<use xlink:href="#glyph-1-3" x="189.483839" y="47.78"/>
<use xlink:href="#glyph-1-4" x="193.24732" y="47.78"/>
<use xlink:href="#glyph-1-5" x="196.547739" y="47.78"/>
<use xlink:href="#glyph-1-4" x="199.370748" y="47.78"/>
</g>
<g fill="rgb(29.998779%, 29.998779%, 100%)" fill-opacity="1">
<use xlink:href="#glyph-1-3" x="202.663196" y="47.78"/>
</g>
<g fill="rgb(29.998779%, 29.998779%, 100%)" fill-opacity="1">
<use xlink:href="#glyph-1-6" x="206.434648" y="47.78"/>
</g>
<g fill="rgb(29.998779%, 29.998779%, 100%)" fill-opacity="1">
<use xlink:href="#glyph-1-0" x="210.661192" y="47.78"/>
</g>
<g fill="rgb(29.998779%, 29.998779%, 100%)" fill-opacity="1">
<use xlink:href="#glyph-1-7" x="213.021138" y="47.78"/>
</g>
<g fill="rgb(29.998779%, 29.998779%, 100%)" fill-opacity="1">
<use xlink:href="#glyph-1-1" x="217.247682" y="47.78"/>
</g>
<g fill="rgb(29.998779%, 29.998779%, 100%)" fill-opacity="1">
<use xlink:href="#glyph-1-8" x="224.781818" y="47.78"/>
</g>
<g fill="rgb(29.998779%, 29.998779%, 100%)" fill-opacity="1">
<use xlink:href="#glyph-1-3" x="229.717701" y="47.78"/>
<use xlink:href="#glyph-1-3" x="233.481182" y="47.78"/>
<use xlink:href="#glyph-1-4" x="237.244663" y="47.78"/>
<use xlink:href="#glyph-1-0" x="240.545082" y="47.78"/>
<use xlink:href="#glyph-1-1" x="242.897058" y="47.78"/>
<use xlink:href="#glyph-1-6" x="247.601808" y="47.78"/>
</g>
<path fill="none" stroke-width="0.79701" stroke-linecap="butt" stroke-linejoin="miter" stroke="rgb(100%, 0%, 0%)" stroke-opacity="1" stroke-dasharray="2.98883 2.98883" stroke-miterlimit="10" d="M -168.233563 -29.059719 C -144.717938 -62.64175 -82.057781 -62.64175 -58.542156 -29.059719 " transform="matrix(1, 0, 0, -1, 215.632, 96.577)"/>
<path fill-rule="nonzero" fill="rgb(100%, 0%, 0%)" fill-opacity="1" stroke-width="0.79701" stroke-linecap="butt" stroke-linejoin="miter" stroke="rgb(100%, 0%, 0%)" stroke-opacity="1" stroke-miterlimit="10" d="M 4.125639 -0.00139967 L 1.284977 1.0768 L 2.237849 -0.000509086 L 1.288851 -1.076606 Z M 4.125639 -0.00139967 " transform="matrix(-0.57356, -0.81914, -0.81914, 0.57356, 48.56828, 127.30606)"/>
<path fill-rule="nonzero" fill="rgb(100%, 0%, 0%)" fill-opacity="1" stroke-width="0.79701" stroke-linecap="butt" stroke-linejoin="miter" stroke="rgb(100%, 0%, 0%)" stroke-opacity="1" stroke-miterlimit="10" d="M 4.127163 -0.000777281 L 1.288135 1.077629 L 2.237133 0.00153203 L 1.286501 -1.078977 Z M 4.127163 -0.000777281 " transform="matrix(0.57356, -0.81914, -0.81914, -0.57356, 155.92125, 127.30606)"/>
<path fill-rule="nonzero" fill="rgb(100%, 100%, 100%)" fill-opacity="1" d="M 61.671875 159.726562 L 142.816406 159.726562 L 142.816406 150.5625 L 61.671875 150.5625 Z M 61.671875 159.726562 "/>
<g fill="rgb(100%, 0%, 0%)" fill-opacity="1">
<use xlink:href="#glyph-2-0" x="63.168" y="157.4"/>
</g>
<g fill="rgb(100%, 0%, 0%)" fill-opacity="1">
<use xlink:href="#glyph-1-1" x="72.574312" y="157.4"/>
<use xlink:href="#glyph-1-7" x="77.279062" y="157.4"/>
</g>
<g fill="rgb(100%, 0%, 0%)" fill-opacity="1">
<use xlink:href="#glyph-1-2" x="84.334992" y="157.4"/>
<use xlink:href="#glyph-1-4" x="87.628237" y="157.4"/>
<use xlink:href="#glyph-1-9" x="90.928655" y="157.4"/>
<use xlink:href="#glyph-1-1" x="95.163169" y="157.4"/>
<use xlink:href="#glyph-1-10" x="99.867919" y="157.4"/>
<use xlink:href="#glyph-1-0" x="103.208188" y="157.4"/>
<use xlink:href="#glyph-1-2" x="105.560165" y="157.4"/>
<use xlink:href="#glyph-1-0" x="108.85341" y="157.4"/>
<use xlink:href="#glyph-1-11" x="111.205387" y="157.4"/>
</g>
<g fill="rgb(100%, 0%, 0%)" fill-opacity="1">
<use xlink:href="#glyph-1-3" x="115.443886" y="157.4"/>
</g>
<g fill="rgb(100%, 0%, 0%)" fill-opacity="1">
<use xlink:href="#glyph-1-4" x="122.028783" y="157.4"/>
<use xlink:href="#glyph-1-7" x="125.329201" y="157.4"/>
<use xlink:href="#glyph-1-12" x="129.563715" y="157.4"/>
<use xlink:href="#glyph-1-2" x="134.268465" y="157.4"/>
<use xlink:href="#glyph-1-3" x="137.56171" y="157.4"/>
</g>
<path fill="none" stroke-width="0.79701" stroke-linecap="butt" stroke-linejoin="miter" stroke="rgb(100%, 0%, 0%)" stroke-opacity="1" stroke-dasharray="2.98883 2.98883" stroke-miterlimit="10" d="M 58.543781 -29.059719 C 82.0555 -62.64175 144.719562 -62.64175 168.231281 -29.059719 " transform="matrix(1, 0, 0, -1, 215.632, 96.577)"/>
<path fill-rule="nonzero" fill="rgb(100%, 0%, 0%)" fill-opacity="1" stroke-width="0.79701" stroke-linecap="butt" stroke-linejoin="miter" stroke="rgb(100%, 0%, 0%)" stroke-opacity="1" stroke-miterlimit="10" d="M 4.126231 -0.000553872 L 1.285569 1.077646 L 2.238441 0.000336709 L 1.287203 -1.07896 Z M 4.126231 -0.000553872 " transform="matrix(-0.57356, -0.81914, -0.81914, 0.57356, 275.34275, 127.30606)"/>
<path fill-rule="nonzero" fill="rgb(100%, 0%, 0%)" fill-opacity="1" stroke-width="0.79701" stroke-linecap="butt" stroke-linejoin="miter" stroke="rgb(100%, 0%, 0%)" stroke-opacity="1" stroke-miterlimit="10" d="M 4.126571 0.0000685133 L 1.287543 1.078475 L 2.238781 -0.000822068 L 1.285909 -1.078131 Z M 4.126571 0.0000685133 " transform="matrix(0.57356, -0.81914, -0.81914, -0.57356, 382.69572, 127.30606)"/>
<path fill-rule="nonzero" fill="rgb(100%, 100%, 100%)" fill-opacity="1" d="M 288.445312 159.726562 L 369.59375 159.726562 L 369.59375 150.5625 L 288.445312 150.5625 Z M 288.445312 159.726562 "/>
<g fill="rgb(100%, 0%, 0%)" fill-opacity="1">
<use xlink:href="#glyph-2-0" x="289.94" y="157.4"/>
</g>
<g fill="rgb(100%, 0%, 0%)" fill-opacity="1">
<use xlink:href="#glyph-1-1" x="299.346312" y="157.4"/>
<use xlink:href="#glyph-1-7" x="304.051062" y="157.4"/>
</g>
<g fill="rgb(100%, 0%, 0%)" fill-opacity="1">
<use xlink:href="#glyph-1-2" x="311.106992" y="157.4"/>
<use xlink:href="#glyph-1-4" x="314.400237" y="157.4"/>
<use xlink:href="#glyph-1-9" x="317.700655" y="157.4"/>
<use xlink:href="#glyph-1-1" x="321.935169" y="157.4"/>
<use xlink:href="#glyph-1-10" x="326.639919" y="157.4"/>
<use xlink:href="#glyph-1-0" x="329.980188" y="157.4"/>
<use xlink:href="#glyph-1-2" x="332.332165" y="157.4"/>
<use xlink:href="#glyph-1-0" x="335.62541" y="157.4"/>
<use xlink:href="#glyph-1-11" x="337.977387" y="157.4"/>
</g>
<g fill="rgb(100%, 0%, 0%)" fill-opacity="1">
<use xlink:href="#glyph-1-3" x="342.215886" y="157.4"/>
</g>
<g fill="rgb(100%, 0%, 0%)" fill-opacity="1">
<use xlink:href="#glyph-1-4" x="348.800783" y="157.4"/>
<use xlink:href="#glyph-1-7" x="352.101201" y="157.4"/>
<use xlink:href="#glyph-1-12" x="356.335715" y="157.4"/>
<use xlink:href="#glyph-1-2" x="361.040465" y="157.4"/>
<use xlink:href="#glyph-1-3" x="364.33371" y="157.4"/>
</g>
<path fill="none" stroke-width="0.79701" stroke-linecap="butt" stroke-linejoin="miter" stroke="rgb(100%, 0%, 0%)" stroke-opacity="1" stroke-dasharray="2.98883 2.98883" stroke-miterlimit="10" d="M -169.245281 -29.532375 C -140.784344 -135.751125 84.090656 -76.223781 112.551594 29.994969 " transform="matrix(1, 0, 0, -1, 215.632, 96.577)"/>
<path fill-rule="nonzero" fill="rgb(100%, 0%, 0%)" fill-opacity="1" stroke-width="0.79701" stroke-linecap="butt" stroke-linejoin="miter" stroke="rgb(100%, 0%, 0%)" stroke-opacity="1" stroke-miterlimit="10" d="M 4.125331 0.00119244 L 1.28751 1.077041 L 2.236866 0.00170101 L 1.28819 -1.078654 Z M 4.125331 0.00119244 " transform="matrix(-0.25882, -0.96591, -0.96591, 0.25882, 46.91262, 128.07814)"/>
<path fill-rule="nonzero" fill="rgb(100%, 0%, 0%)" fill-opacity="1" stroke-width="0.79701" stroke-linecap="butt" stroke-linejoin="miter" stroke="rgb(100%, 0%, 0%)" stroke-opacity="1" stroke-miterlimit="10" d="M 4.124274 -0.0014058 L 1.287133 1.078441 L 2.235809 -0.00191437 L 1.286453 -1.077254 Z M 4.124274 -0.0014058 " transform="matrix(0.25882, -0.96591, -0.96591, -0.25882, 327.65776, 68.54972)"/>
<path fill-rule="nonzero" fill="rgb(100%, 100%, 100%)" fill-opacity="1" d="M 120.3125 202.179688 L 254.257812 202.179688 L 254.257812 191.21875 L 120.3125 191.21875 Z M 120.3125 202.179688 "/>
<g fill="rgb(100%, 0%, 0%)" fill-opacity="1">
<use xlink:href="#glyph-2-0" x="121.808" y="198.69"/>
</g>
<g fill="rgb(100%, 0%, 0%)" fill-opacity="1">
<use xlink:href="#glyph-1-1" x="131.214312" y="198.69"/>
<use xlink:href="#glyph-1-7" x="135.919062" y="198.69"/>
</g>
<g fill="rgb(100%, 0%, 0%)" fill-opacity="1">
<use xlink:href="#glyph-1-2" x="142.974992" y="198.69"/>
<use xlink:href="#glyph-1-4" x="146.268237" y="198.69"/>
<use xlink:href="#glyph-1-9" x="149.568655" y="198.69"/>
<use xlink:href="#glyph-1-1" x="153.803169" y="198.69"/>
<use xlink:href="#glyph-1-10" x="158.507919" y="198.69"/>
<use xlink:href="#glyph-1-0" x="161.848188" y="198.69"/>
<use xlink:href="#glyph-1-2" x="164.200165" y="198.69"/>
<use xlink:href="#glyph-1-0" x="167.49341" y="198.69"/>
<use xlink:href="#glyph-1-11" x="169.845387" y="198.69"/>
</g>
<g fill="rgb(100%, 0%, 0%)" fill-opacity="1">
<use xlink:href="#glyph-1-3" x="174.083886" y="198.69"/>
</g>
<g fill="rgb(100%, 0%, 0%)" fill-opacity="1">
<use xlink:href="#glyph-1-4" x="180.668783" y="198.69"/>
<use xlink:href="#glyph-1-7" x="183.969201" y="198.69"/>
<use xlink:href="#glyph-1-12" x="188.203715" y="198.69"/>
<use xlink:href="#glyph-1-2" x="192.908465" y="198.69"/>
<use xlink:href="#glyph-1-3" x="196.20171" y="198.69"/>
</g>
<g fill="rgb(100%, 0%, 0%)" fill-opacity="1">
<use xlink:href="#glyph-1-13" x="202.786607" y="198.69"/>
<use xlink:href="#glyph-1-14" x="206.079852" y="198.69"/>
<use xlink:href="#glyph-1-4" x="209.843334" y="198.69"/>
<use xlink:href="#glyph-1-7" x="213.143752" y="198.69"/>
<use xlink:href="#glyph-1-10" x="217.378266" y="198.69"/>
<use xlink:href="#glyph-1-10" x="220.718535" y="198.69"/>
<use xlink:href="#glyph-1-5" x="224.058804" y="198.69"/>
<use xlink:href="#glyph-1-4" x="226.881813" y="198.69"/>
<use xlink:href="#glyph-1-3" x="230.182232" y="198.69"/>
<use xlink:href="#glyph-1-6" x="233.945713" y="198.69"/>
<use xlink:href="#glyph-1-0" x="238.180227" y="198.69"/>
<use xlink:href="#glyph-1-7" x="240.532204" y="198.69"/>
<use xlink:href="#glyph-1-1" x="244.766718" y="198.69"/>
<use xlink:href="#glyph-1-15" x="249.471468" y="198.69"/>
</g>
<path fill-rule="nonzero" fill="rgb(100%, 100%, 100%)" fill-opacity="1" stroke-width="0.3985" stroke-linecap="butt" stroke-linejoin="miter" stroke="rgb(0%, 0%, 0%)" stroke-opacity="1" stroke-miterlimit="10" d="M 321.8055 80.588719 L 210.660969 80.588719 C 208.46175 80.588719 206.676594 78.803562 206.676594 76.604344 L 206.676594 42.284031 C 206.676594 40.084812 208.46175 38.299656 210.660969 38.299656 L 321.8055 38.299656 C 324.004719 38.299656 325.789875 40.084812 325.789875 42.284031 L 325.789875 76.604344 C 325.789875 78.803562 324.004719 80.588719 321.8055 80.588719 Z M 321.8055 80.588719 " transform="matrix(1, 0, 0, -1, 215.632, 96.577)"/>
<path fill="none" stroke-width="0.79701" stroke-linecap="butt" stroke-linejoin="miter" stroke="rgb(29.998779%, 29.998779%, 100%)" stroke-opacity="1" stroke-miterlimit="10" d="M 3.22325 11.338594 L 30.793563 11.338594 " transform="matrix(1, 0, 0, -1, 428.683, 42.78)"/>
<path fill-rule="nonzero" fill="rgb(29.998779%, 29.998779%, 100%)" fill-opacity="1" stroke-width="0.79701" stroke-linecap="butt" stroke-linejoin="miter" stroke="rgb(29.998779%, 29.998779%, 100%)" stroke-opacity="1" stroke-miterlimit="10" d="M 4.126944 -0.00004375 L 1.2871 1.078081 L 2.236319 -0.00004375 L 1.2871 -1.078169 Z M 4.126944 -0.00004375 " transform="matrix(-1, 0, 0, 1, 433.94335, 31.44145)"/>
<path fill-rule="nonzero" fill="rgb(29.998779%, 29.998779%, 100%)" fill-opacity="1" stroke-width="0.79701" stroke-linecap="butt" stroke-linejoin="miter" stroke="rgb(29.998779%, 29.998779%, 100%)" stroke-opacity="1" stroke-miterlimit="10" d="M 4.12378 0.00004375 L 1.287843 1.078169 L 2.237061 0.00004375 L 1.287843 -1.078081 Z M 4.12378 0.00004375 " transform="matrix(1, 0, 0, -1, 457.43872, 31.44145)"/>
<g fill="rgb(0%, 0%, 0%)" fill-opacity="1">
<use xlink:href="#glyph-1-16" x="469.075" y="33.39"/>
<use xlink:href="#glyph-1-17" x="474.834194" y="33.39"/>
<use xlink:href="#glyph-1-0" x="479.303826" y="33.39"/>
<use xlink:href="#glyph-1-10" x="481.655803" y="33.39"/>
<use xlink:href="#glyph-1-2" x="484.996072" y="33.39"/>
<use xlink:href="#glyph-1-0" x="488.289317" y="33.39"/>
<use xlink:href="#glyph-1-1" x="490.641294" y="33.39"/>
<use xlink:href="#glyph-1-6" x="495.346044" y="33.39"/>
</g>
<g fill="rgb(0%, 0%, 0%)" fill-opacity="1">
<use xlink:href="#glyph-1-8" x="502.401973" y="33.39"/>
</g>
<g fill="rgb(0%, 0%, 0%)" fill-opacity="1">
<use xlink:href="#glyph-1-3" x="507.345826" y="33.39"/>
<use xlink:href="#glyph-1-3" x="511.109307" y="33.39"/>
<use xlink:href="#glyph-1-4" x="514.872789" y="33.39"/>
<use xlink:href="#glyph-1-0" x="518.173207" y="33.39"/>
<use xlink:href="#glyph-1-1" x="520.525184" y="33.39"/>
<use xlink:href="#glyph-1-6" x="525.229934" y="33.39"/>
</g>
<path fill="none" stroke-width="0.79701" stroke-linecap="butt" stroke-linejoin="miter" stroke="rgb(100%, 0%, 0%)" stroke-opacity="1" stroke-dasharray="2.98883 2.98883" stroke-miterlimit="10" d="M 3.22325 -0.00125 L 30.793563 -0.00125 " transform="matrix(1, 0, 0, -1, 428.683, 42.78)"/>
<path fill-rule="nonzero" fill="rgb(100%, 0%, 0%)" fill-opacity="1" stroke-width="0.79701" stroke-linecap="butt" stroke-linejoin="miter" stroke="rgb(100%, 0%, 0%)" stroke-opacity="1" stroke-miterlimit="10" d="M 4.126944 0.00125 L 1.2871 1.079375 L 2.236319 0.00125 L 1.2871 -1.076875 Z M 4.126944 0.00125 " transform="matrix(-1, 0, 0, 1, 433.94335, 42.78)"/>
<path fill-rule="nonzero" fill="rgb(100%, 0%, 0%)" fill-opacity="1" stroke-width="0.79701" stroke-linecap="butt" stroke-linejoin="miter" stroke="rgb(100%, 0%, 0%)" stroke-opacity="1" stroke-miterlimit="10" d="M 4.12378 -0.00125 L 1.287843 1.076875 L 2.237061 -0.00125 L 1.287843 -1.079375 Z M 4.12378 -0.00125 " transform="matrix(1, 0, 0, -1, 457.43872, 42.78)"/>
<g fill="rgb(0%, 0%, 0%)" fill-opacity="1">
<use xlink:href="#glyph-1-18" x="469.075" y="44.772"/>
<use xlink:href="#glyph-1-0" x="476.82911" y="44.772"/>
<use xlink:href="#glyph-1-10" x="479.181087" y="44.772"/>
<use xlink:href="#glyph-1-10" x="482.521356" y="44.772"/>
<use xlink:href="#glyph-1-0" x="485.861625" y="44.772"/>
<use xlink:href="#glyph-1-1" x="488.213601" y="44.772"/>
<use xlink:href="#glyph-1-6" x="492.918351" y="44.772"/>
</g>
<g fill="rgb(0%, 0%, 0%)" fill-opacity="1">
<use xlink:href="#glyph-1-8" x="499.974281" y="44.772"/>
<use xlink:href="#glyph-1-9" x="504.679031" y="44.772"/>
<use xlink:href="#glyph-1-2" x="508.913545" y="44.772"/>
<use xlink:href="#glyph-1-19" x="512.20679" y="44.772"/>
</g>
</svg>
